<svg xmlns="http://www.w3.org/2000/svg"  xmlns:xlink="http://www.w3.org/1999/xlink"  id="logo-large" viewBox="0 0 210 45" role="img" aria-labelledby="title desc" class="w-24 md:w-36 lg:w-[180px] xl:w-[210px]">
    <title id="title">MyEdSpace Logo</title>
    <desc id="desc">Logo of MyEdSpace, a platform for education</desc>

    <path class="hidden lg:block" d="M122.695 14.3589H122.116L127.47 3.47074H128.917V15.227H127.47V5.98478L127.759 6.05712L123.129 15.227H121.682L117.052 6.07521L117.341 6.00286V15.227H115.895V3.47074H117.341L122.695 14.3589Z" fill="currentColor"></path>
    <path class="hidden lg:block" d="M130.723 6.18373H132.279L135.516 14.8653L134.25 15.227L130.723 6.18373ZM139.134 6.18373L134.088 18.8444H132.514L134.702 13.961L137.596 6.18373H139.134Z" fill="currentColor"></path>
    <path class="hidden lg:block" d="M142.387 10.0543V13.8705H149.278V15.227H140.94V3.47074H149.26V4.82723H142.387V8.69777H148.012V10.0543H142.387Z" fill="currentColor"></path>
    <path class="hidden lg:block" d="M154.773 15.4079C154.05 15.4079 153.387 15.209 152.784 14.811C152.193 14.4011 151.723 13.8464 151.373 13.1471C151.023 12.4357 150.848 11.6278 150.848 10.7235C150.848 9.81914 151.017 9.01127 151.355 8.29986C151.693 7.58846 152.157 7.02777 152.748 6.61781C153.338 6.20784 154.014 6.00286 154.773 6.00286C155.448 6.00286 155.997 6.12947 156.419 6.38268C156.853 6.62384 157.185 6.96145 157.414 7.39553C157.643 7.82961 157.8 8.33001 157.884 8.89672C157.981 9.46344 158.029 10.0724 158.029 10.7235C158.029 11.1817 157.981 11.6821 157.884 12.2247C157.788 12.7552 157.619 13.2677 157.378 13.762C157.149 14.2443 156.823 14.6422 156.401 14.9557C155.979 15.2572 155.436 15.4079 154.773 15.4079ZM155.135 14.0333C155.75 14.0333 156.256 13.8826 156.654 13.5812C157.064 13.2797 157.366 12.8818 157.559 12.3874C157.752 11.881 157.848 11.3264 157.848 10.7235C157.848 10.0603 157.745 9.48152 157.541 8.98715C157.348 8.48073 157.046 8.08885 156.636 7.81152C156.238 7.52214 155.738 7.37745 155.135 7.37745C154.231 7.37745 153.531 7.69698 153.037 8.33604C152.543 8.96304 152.295 9.75885 152.295 10.7235C152.295 11.3625 152.416 11.9353 152.657 12.4417C152.91 12.9361 153.248 13.3279 153.67 13.6173C154.104 13.8947 154.592 14.0333 155.135 14.0333ZM157.848 2.56641H159.295V15.227H157.975C157.95 14.9618 157.92 14.6483 157.884 14.2865C157.86 13.9248 157.848 13.6354 157.848 13.4184V2.56641Z" fill="currentColor"></path>
    <path class="hidden lg:block" d="M161.393 11.4108H162.695C162.731 11.9172 162.882 12.3694 163.147 12.7673C163.412 13.1652 163.774 13.4787 164.232 13.7078C164.703 13.9369 165.251 14.0514 165.878 14.0514C166.421 14.0514 166.873 13.973 167.235 13.8163C167.608 13.6475 167.886 13.4184 168.067 13.129C168.26 12.8396 168.356 12.502 168.356 12.1161C168.356 11.7182 168.26 11.3987 168.067 11.1575C167.874 10.9164 167.596 10.7114 167.235 10.5426C166.873 10.3738 166.445 10.211 165.951 10.0543C165.48 9.90957 165.004 9.74076 164.522 9.54784C164.039 9.35492 163.587 9.11979 163.165 8.84246C162.755 8.56513 162.424 8.23355 162.17 7.8477C161.917 7.44979 161.791 6.97351 161.791 6.41886C161.791 5.87626 161.935 5.36983 162.225 4.89958C162.526 4.41727 162.96 4.03142 163.527 3.74204C164.106 3.44059 164.799 3.28987 165.607 3.28987C166.873 3.28987 167.819 3.63352 168.446 4.32081C169.073 5.0081 169.375 5.91846 169.351 7.05189H168.049C168.024 6.19579 167.783 5.58084 167.325 5.20705C166.867 4.83326 166.27 4.64637 165.535 4.64637C164.92 4.64637 164.383 4.79106 163.925 5.08045C163.467 5.35777 163.238 5.79788 163.238 6.40077C163.238 6.66604 163.286 6.90117 163.382 7.10615C163.491 7.29907 163.66 7.47994 163.889 7.64875C164.13 7.81755 164.449 7.98636 164.847 8.15517C165.257 8.31192 165.758 8.48676 166.348 8.67968C166.734 8.80026 167.126 8.94495 167.524 9.11376C167.934 9.28257 168.308 9.49358 168.645 9.74679C168.995 10 169.272 10.3256 169.477 10.7235C169.694 11.1093 169.803 11.5977 169.803 12.1885C169.803 12.7552 169.664 13.2857 169.387 13.7801C169.122 14.2624 168.7 14.6543 168.121 14.9557C167.554 15.2572 166.819 15.4079 165.914 15.4079C165.143 15.4079 164.479 15.3054 163.925 15.1004C163.382 14.8834 162.936 14.6061 162.586 14.2684C162.237 13.9308 161.965 13.5812 161.773 13.2194C161.592 12.8456 161.471 12.496 161.411 12.1704C161.35 11.8448 161.344 11.5916 161.393 11.4108Z" fill="currentColor"></path>
    <path class="hidden lg:block" d="M176.224 15.4079C175.561 15.4079 175.018 15.2572 174.596 14.9557C174.174 14.6422 173.843 14.2443 173.601 13.762C173.372 13.2677 173.21 12.7552 173.113 12.2247C173.017 11.6821 172.968 11.1817 172.968 10.7235C172.968 10.0724 173.011 9.46344 173.095 8.89672C173.191 8.33001 173.354 7.82961 173.583 7.39553C173.812 6.96145 174.138 6.62384 174.56 6.38268C174.994 6.12947 175.549 6.00286 176.224 6.00286C176.947 6.00286 177.605 6.20784 178.195 6.61781C178.786 7.02777 179.257 7.58846 179.606 8.29986C179.968 9.01127 180.149 9.81914 180.149 10.7235C180.149 11.6278 179.968 12.4357 179.606 13.1471C179.244 13.8464 178.762 14.4011 178.159 14.811C177.568 15.209 176.923 15.4079 176.224 15.4079ZM175.862 14.0333C176.417 14.0333 176.905 13.8947 177.327 13.6173C177.761 13.3279 178.099 12.9361 178.34 12.4417C178.581 11.9353 178.702 11.3625 178.702 10.7235C178.702 9.75885 178.455 8.96304 177.96 8.33604C177.466 7.69698 176.767 7.37745 175.862 7.37745C175.332 7.37745 174.861 7.52214 174.452 7.81152C174.042 8.08885 173.722 8.48073 173.493 8.98715C173.264 9.48152 173.149 10.0603 173.149 10.7235C173.149 11.3264 173.246 11.881 173.439 12.3874C173.644 12.8818 173.945 13.2797 174.343 13.5812C174.741 13.8826 175.247 14.0333 175.862 14.0333ZM171.702 6.18373H173.095L173.149 8.08282V18.8444H171.702V6.18373Z" fill="currentColor"></path>
    <path class="hidden lg:block" d="M185.418 15.4079C184.707 15.4079 184.05 15.209 183.447 14.811C182.856 14.4011 182.38 13.8464 182.018 13.1471C181.668 12.4357 181.493 11.6278 181.493 10.7235C181.493 9.81914 181.674 9.01127 182.036 8.29986C182.398 7.58846 182.886 7.02777 183.501 6.61781C184.128 6.20784 184.827 6.00286 185.599 6.00286C186.443 6.00286 187.082 6.2199 187.516 6.65398C187.962 7.076 188.264 7.64272 188.42 8.35412C188.589 9.06553 188.674 9.85531 188.674 10.7235C188.674 11.1817 188.625 11.6821 188.529 12.2247C188.433 12.7552 188.264 13.2677 188.023 13.762C187.793 14.2443 187.468 14.6422 187.046 14.9557C186.624 15.2572 186.081 15.4079 185.418 15.4079ZM185.78 14.0333C186.395 14.0333 186.901 13.8826 187.299 13.5812C187.709 13.2797 188.01 12.8818 188.203 12.3874C188.396 11.881 188.493 11.3264 188.493 10.7235C188.493 10.0603 188.39 9.48152 188.185 8.98715C187.992 8.48073 187.691 8.08885 187.281 7.81152C186.883 7.52214 186.383 7.37745 185.78 7.37745C184.875 7.37745 184.176 7.69698 183.682 8.33604C183.187 8.96304 182.94 9.75885 182.94 10.7235C182.94 11.3625 183.061 11.9353 183.302 12.4417C183.555 12.9361 183.893 13.3279 184.315 13.6173C184.749 13.8947 185.237 14.0333 185.78 14.0333ZM188.493 6.18373H189.94V15.227H188.619C188.619 15.227 188.607 15.1185 188.583 14.9015C188.571 14.6844 188.553 14.4312 188.529 14.1418C188.505 13.8525 188.493 13.6113 188.493 13.4184V6.18373Z" fill="currentColor"></path>
    <path class="hidden lg:block" d="M200.328 11.8268C200.243 12.5743 200.002 13.2194 199.604 13.762C199.218 14.2926 198.73 14.7025 198.139 14.9919C197.548 15.2692 196.909 15.4079 196.222 15.4079C195.45 15.4079 194.727 15.221 194.051 14.8472C193.376 14.4734 192.828 13.9369 192.406 13.2375C191.996 12.5261 191.791 11.6881 191.791 10.7235C191.791 9.75885 191.996 8.92687 192.406 8.22752C192.828 7.51611 193.376 6.96748 194.051 6.58163C194.727 6.19579 195.45 6.00286 196.222 6.00286C196.909 6.00286 197.542 6.14756 198.121 6.43694C198.712 6.72633 199.2 7.13629 199.586 7.66683C199.984 8.19737 200.231 8.8304 200.328 9.56593H199.007C198.802 8.87864 198.447 8.34207 197.94 7.95622C197.434 7.55831 196.861 7.35936 196.222 7.35936C195.703 7.35936 195.215 7.49199 194.757 7.75727C194.299 8.02254 193.931 8.40838 193.654 8.91481C193.376 9.40918 193.238 10.0121 193.238 10.7235C193.238 11.4228 193.376 12.0257 193.654 12.5321C193.931 13.0265 194.293 13.4063 194.739 13.6716C195.197 13.9248 195.691 14.0514 196.222 14.0514C196.957 14.0514 197.554 13.8585 198.012 13.4726C198.483 13.0747 198.82 12.5261 199.025 11.8268H200.328Z" fill="currentColor"></path>
    <path class="hidden lg:block" d="M208.573 12.3151H209.93C209.833 12.9059 209.616 13.4365 209.279 13.9067C208.953 14.3649 208.519 14.7327 207.976 15.01C207.446 15.2753 206.831 15.4079 206.131 15.4079C205.287 15.4079 204.528 15.209 203.853 14.811C203.177 14.4011 202.641 13.8464 202.243 13.1471C201.857 12.4357 201.664 11.6278 201.664 10.7235C201.664 9.81914 201.851 9.01127 202.225 8.29986C202.611 7.58846 203.135 7.02777 203.798 6.61781C204.461 6.20784 205.209 6.00286 206.041 6.00286C206.921 6.00286 207.663 6.20182 208.266 6.59972C208.881 6.98557 209.333 7.55831 209.622 8.31795C209.924 9.06553 210.044 9.98795 209.984 11.0852H203.111C203.171 11.676 203.334 12.1945 203.599 12.6407C203.865 13.0868 204.214 13.4365 204.648 13.6897C205.082 13.9308 205.577 14.0514 206.131 14.0514C206.746 14.0514 207.265 13.8947 207.687 13.5812C208.121 13.2556 208.416 12.8336 208.573 12.3151ZM206.095 7.35936C205.348 7.35936 204.721 7.5764 204.214 8.01048C203.708 8.44456 203.37 9.03539 203.201 9.78297H208.501C208.453 8.98715 208.193 8.38427 207.723 7.9743C207.265 7.56434 206.722 7.35936 206.095 7.35936Z" fill="currentColor"></path>

    <path fill-rule="evenodd" clip-rule="evenodd" d="M93.2212 1.00256C95.915 0.916623 98.6154 1.94379 100.589 3.67826C103.608 6.33197 106.17 13.175 103.068 23.1959L96.9948 21.316C99.6218 12.8289 96.9334 8.93029 96.3912 8.45368C95.5775 7.73849 94.4341 7.32506 93.4239 7.35728C92.5217 7.38606 91.8075 7.74393 91.3137 8.58282C89.7066 11.3128 90.263 14.3325 92.2405 18.5534C92.8416 19.8363 93.4605 21.0099 94.1123 22.2461L94.1128 22.2469L94.113 22.2472C94.5686 23.1112 95.0404 24.0058 95.5335 24.9897C96.6386 27.1948 97.7273 29.6315 98.2361 32.1399C99.1154 36.4754 97.5014 42.3522 91.6857 44.3488C86.2918 46.2007 81.3329 43.2937 79.1209 40.5013C78.2727 39.4306 77.6904 38.2435 77.2972 37.0361C76.9142 37.4978 76.521 37.9445 76.1178 38.3743C72.3236 42.4189 67.3014 45.2935 61.4237 44.5351C57.3229 44.006 54.83 41.2951 53.4441 38.069C53.4617 39.5294 53.4591 40.7798 53.4571 41.7414C53.4565 42.013 53.456 42.2616 53.456 42.4853H47.098C47.098 42.2693 47.0984 42.0346 47.0988 41.7825V41.7809V41.7791V41.7791C47.1056 37.4353 47.1204 27.9315 45.4229 19.793C44.515 15.4404 43.1999 11.9221 41.4726 9.78625C40.6455 8.76354 39.8014 8.15428 38.9447 7.84781C38.1076 7.54831 37.0208 7.4518 35.5404 7.84235C34.2807 8.17467 32.9767 9.33902 31.9485 11.7505C33.7762 13.7829 35.4478 15.9771 36.9151 18.2042C40.1595 23.1281 42.5919 28.4964 43.4414 33.0318C43.8618 35.2767 43.9527 37.6188 43.2966 39.6739C42.585 41.903 40.9887 43.7344 38.4507 44.445C36.1434 45.0911 33.9377 44.7208 32.0491 43.5967C30.2551 42.5289 28.879 40.8679 27.8329 39.0777C25.7462 35.5069 24.5097 30.6308 24.0721 25.7857C23.702 21.6876 23.879 17.3444 24.7562 13.4858C23.5643 12.3748 22.3364 11.3801 21.0932 10.5383C17.2034 7.90448 13.6224 7.04897 10.5756 8.01829C7.81497 8.89654 6.86282 10.2549 6.52414 11.6629C6.11336 13.3707 6.45128 15.8413 7.75172 18.9785C10.3275 25.1924 15.9398 32.2617 21.0328 37.0129L26.9324 42.5164H18.8643H4.40762V36.1585H11.4257C7.58515 31.7031 3.96646 26.4506 1.87837 21.4132C0.370628 17.7758 -0.529138 13.7997 0.342493 10.176C1.28622 6.25263 4.13656 3.39483 8.64809 1.95955C14.3032 0.160455 19.948 2.0845 24.6579 5.27366C25.5108 5.85119 26.3482 6.47953 27.1671 7.15048C28.6727 4.60664 30.8472 2.50499 33.9186 1.69472C36.4593 1.02446 38.8743 1.07001 41.0864 1.86142C43.279 2.64584 45.0318 4.07634 46.4162 5.78821C49.1119 9.1215 50.6784 13.8516 51.6469 18.4948C51.9533 19.9636 52.2081 21.4683 52.4199 22.9761C52.582 21.9887 52.7782 21.0064 53.0051 20.039C54.1882 14.9938 56.299 9.94313 59.1842 6.33727C62.0336 2.77614 66.3186 -0.0856621 71.4523 1.51145C73.4096 2.12039 74.9389 3.31899 75.9499 4.9498C76.925 6.5227 77.3164 8.32684 77.3741 10.0791C77.488 13.5392 76.3283 17.4502 74.5529 20.9995C72.7567 24.5903 70.1782 28.118 67.1138 30.7889C64.8211 32.7872 62.0952 34.44 59.1028 35.1286C59.8757 37.2663 61.0214 38.0725 62.2374 38.2294C65.3616 38.6325 68.4918 37.2106 71.4808 34.0244C73.9101 31.4347 76.0221 27.8887 77.6212 23.9732C77.6903 23.7027 77.7584 23.4483 77.8238 23.2121C77.9919 22.6052 78.1449 22.1101 78.2581 21.7606C78.3148 21.5857 78.3616 21.4466 78.3956 21.3477C78.4126 21.2982 78.4265 21.2587 78.4367 21.2297L78.4493 21.1941L78.4536 21.1823L78.4551 21.1779L78.4558 21.1761C78.4559 21.1758 78.456 21.1755 78.6342 21.2396C78.6377 21.2291 78.6412 21.2186 78.6447 21.208L84.6764 23.2186C84.373 24.1289 84.0418 25.0377 83.6837 25.9388C83.4757 26.7956 83.2684 27.7989 83.1191 28.8652C82.9028 30.4103 82.8228 31.988 82.9902 33.3968C83.159 34.8179 83.5539 35.8582 84.1046 36.5533C85.1833 37.9151 87.5128 39.0592 89.6211 38.3354C91.5119 37.6863 92.4611 35.6523 92.005 33.4038C91.6708 31.7559 90.902 29.9387 89.8494 27.8384C89.4861 27.1135 89.0616 26.3055 88.6188 25.4626L88.6182 25.4615L88.6179 25.4609L88.6178 25.4606L88.6174 25.46C87.892 24.0792 87.1177 22.6052 86.4831 21.2508C84.3735 16.7478 82.4996 11.0228 85.8345 5.3575C87.569 2.411 90.4193 1.09194 93.2212 1.00256ZM30.299 19.814C30.205 21.5703 30.2402 23.3972 30.4043 25.2138C30.7929 29.5167 31.8699 33.3845 33.3222 35.8698C34.0456 37.1076 34.7454 37.8026 35.301 38.1333C35.762 38.4077 36.1795 38.4785 36.7364 38.3225C36.9527 38.262 37.0916 38.2046 37.2398 37.7404C37.4435 37.1022 37.5188 35.9466 37.1921 34.2023C36.5472 30.7594 34.5588 26.1836 31.6061 21.7023C31.1855 21.0641 30.7492 20.4336 30.299 19.814ZM69.5635 7.5824C68.1021 7.12772 66.2973 7.6241 64.1486 10.3095C62.0357 12.9501 60.2402 17.0343 59.1951 21.4906C58.607 23.9986 58.2868 26.4956 58.2475 28.7775C59.7468 28.3179 61.3373 27.3897 62.9363 25.996C65.2881 23.9462 67.3858 21.1155 68.8667 18.1551C70.3683 15.1531 71.0865 12.3201 71.0196 10.2884C70.9868 9.29479 70.7732 8.66609 70.5461 8.29983C70.3549 7.99149 70.085 7.74462 69.5635 7.5824Z" fill="currentColor"></path>
</svg>